<svg xmlns="http://www.w3.org/2000/svg" width="292" height="104"><path fill-rule="evenodd" d="M284.367 104V0h7.631v104h-7.63zM241.88 34.669h7.583V67.64h-7.96L229.63 46.444V67.64h-7.63V34.669h7.96l11.919 21.478V34.67zm-49.978-.849c10.927 0 17.428 8.29 17.428 17.335 0 9.043-6.501 17.334-17.428 17.334-10.976 0-17.477-8.29-17.477-17.334s6.5-17.335 17.477-17.335zm9.657 17.335c0-5.417-3.676-10.457-9.657-10.457-6.03 0-9.656 5.04-9.656 10.457 0 5.416 3.626 10.457 9.656 10.457 5.981 0 9.657-5.04 9.657-10.457zm-132.88-9.892v-6.594H91.24v6.594h-7.49V67.64h-7.63V41.263h-7.441zm80.877 7.018h12.482v5.983h-12.482v7.253h12.482v6.124h-20.113V34.669h20.113v6.124h-12.482v7.488zM116.96 34.669c7.3 0 12.01 5.511 12.01 11.917 0 4.616-2.45 8.713-6.548 10.645l6.596 10.41h-8.855l-5.843-9.14h-3.58v9.14h-7.63V34.669h13.85zm4.285 11.917c0-3.062-2.073-5.7-5.276-5.7h-5.229v11.399h5.229c3.203 0 5.276-2.637 5.276-5.699zM53.747 63.637h-11.73l-1.272 4.004h-8.15l11.777-32.972h7.018L63.308 67.64h-8.29l-1.271-4.004zM47.904 44.09l-4.05 13.566h8.006L47.904 44.09zm-34.103-9.42c7.301 0 12.012 5.511 12.012 11.917s-4.71 11.916-12.012 11.916H7.63v9.139H0V34.669h13.8zm4.334 11.917c0-3.062-2.073-5.7-5.276-5.7H7.631v11.399h5.228c3.203 0 5.276-2.637 5.276-5.699z"/></svg>